<svg id="Layer_1" data-name="Layer 1" xmlns="http://www.w3.org/2000/svg" viewBox="0 0 238.33 132.19"><defs><style>.cls-1,.cls-3{fill:#356574;}.cls-2{fill:#24a65f;}.cls-3{font-size:26px;font-family:Raleway-SemiBold, Raleway;font-weight:700;}.cls-4{letter-spacing:-0.03em;}.cls-5{letter-spacing:-0.02em;}.cls-6{letter-spacing:-0.02em;}</style></defs><title>Blink Mortgage Utah</title><path class="cls-1" d="M127,93.39a.88.88,0,0,1-.88.88H113.81a.88.88,0,0,1-.88-.88V81.08a.88.88,0,0,1,.88-.88h12.31a.88.88,0,0,1,.88.88Z" transform="translate(-75.03 -20.6)"/><rect class="cls-1" x="55.58" y="59.61" width="14.07" height="14.07" rx="0.88" ry="0.88"/><path class="cls-1" d="M257.79,93.39a.88.88,0,0,1-.88.88H244.59a.88.88,0,0,1-.88-.88V81.08a.88.88,0,0,1,.88-.88H256.9a.88.88,0,0,1,.88.88Z" transform="translate(-75.03 -20.6)"/><rect class="cls-1" x="186.37" y="59.61" width="14.07" height="14.07" rx="0.88" ry="0.88"/><path class="cls-1" d="M303.47,81.81,288.08,66.42h0V55.52a1.11,1.11,0,0,0-1.11-1.1h-4.85a1.11,1.11,0,0,0-1.1,1.1v3.84L260.65,39a1.5,1.5,0,0,0-2.11,0l-2.11,2.12-2.12,2.11L235.87,61.65,199.48,25.26l-2.11-2.12L195.26,21a1.5,1.5,0,0,0-2.11,0L172.77,41.41V37.57a1.11,1.11,0,0,0-1.11-1.1h-4.85a1.11,1.11,0,0,0-1.11,1.1V48.46h0L152.52,61.65,134.09,43.22,132,41.1,129.86,39a1.5,1.5,0,0,0-2.11,0L107.37,59.36V55.52a1.11,1.11,0,0,0-1.11-1.1h-4.84a1.11,1.11,0,0,0-1.11,1.1V66.41h0L84.93,81.81a1.5,1.5,0,0,0,0,2.11L87,86a1.51,1.51,0,0,0,2.12,0l38.59-38.59a1.49,1.49,0,0,1,2.11,0L168.45,86a1.5,1.5,0,0,0,2.11,0l2.11-2.12a1.49,1.49,0,0,0,0-2.11L156.75,65.88l36.39-36.39a1.5,1.5,0,0,1,2.11,0l36.39,36.39L215.71,81.81a1.49,1.49,0,0,0,0,2.11L217.83,86a1.5,1.5,0,0,0,2.12,0l38.59-38.59a1.5,1.5,0,0,1,2.11,0L299.24,86a1.5,1.5,0,0,0,2.12,0l2.11-2.12A1.49,1.49,0,0,0,303.47,81.81Z" transform="translate(-75.03 -20.6)"/><path class="cls-1" d="M130.71,51.43l-.81-.81-.81-.81a.58.58,0,0,0-.81,0l-16.4,16.41a.57.57,0,0,0,0,.81l.81.81a.57.57,0,0,0,.81,0l14.78-14.79a.58.58,0,0,1,.81,0l14.79,14.79a.57.57,0,0,0,.81,0l.81-.81a.57.57,0,0,0,0-.81Z" transform="translate(-75.03 -20.6)"/><path class="cls-1" d="M196.22,33.32l-.81-.81-.81-.81a.57.57,0,0,0-.81,0l-16.4,16.4a.57.57,0,0,0,0,.81l.81.81a.58.58,0,0,0,.81,0l14.79-14.79a.58.58,0,0,1,.81,0l14.78,14.79a.57.57,0,0,0,.81,0l.81-.81a.58.58,0,0,0,0-.81Z" transform="translate(-75.03 -20.6)"/><path class="cls-1" d="M261.62,51.43l-.81-.81-.81-.81a.58.58,0,0,0-.81,0l-16.4,16.41a.57.57,0,0,0,0,.81l.81.81a.57.57,0,0,0,.81,0l14.78-14.79a.58.58,0,0,1,.81,0l14.78,14.79a.57.57,0,0,0,.81,0l.81-.81a.57.57,0,0,0,0-.81Z" transform="translate(-75.03 -20.6)"/><path class="cls-2" d="M194.2,109.64c52.19,0,97.36,11,119.17,27.06-6.52-20.5-57.38-36.47-119.17-36.47S81.55,116.2,75,136.71C96.84,120.67,142,109.64,194.2,109.64Z" transform="translate(-75.03 -20.6)"/><path class="cls-1" d="M127,104.46V97.82a.88.88,0,0,0-.88-.88H113.81a.88.88,0,0,0-.88.88v10.46Q119.53,106.19,127,104.46Z" transform="translate(-75.03 -20.6)"/><path class="cls-1" d="M144.68,101.07V97.82a.88.88,0,0,0-.88-.88H131.49a.88.88,0,0,0-.88.88v5.83Q137.36,102.21,144.68,101.07Z" transform="translate(-75.03 -20.6)"/><path class="cls-1" d="M257.79,103.65V97.82a.88.88,0,0,0-.88-.88H244.59a.88.88,0,0,0-.88.88v3.25Q251,102.21,257.79,103.65Z" transform="translate(-75.03 -20.6)"/><path class="cls-1" d="M275.47,108.28V97.82a.88.88,0,0,0-.88-.88H262.28a.88.88,0,0,0-.88.88v6.64Q268.86,106.18,275.47,108.28Z" transform="translate(-75.03 -20.6)"/><rect class="cls-1" x="103.29" y="43.71" width="14.07" height="14.07" rx="0.88" ry="0.88"/><rect class="cls-1" x="120.97" y="43.71" width="14.07" height="14.07" rx="0.88" ry="0.88"/><rect class="cls-1" x="103.29" y="60.45" width="14.07" height="14.07" rx="0.88" ry="0.88"/><path class="cls-1" d="M210.07,94.24a.88.88,0,0,1-.88.88H196.88a.88.88,0,0,1-.88-.88V81.93a.88.88,0,0,1,.88-.88h12.31a.88.88,0,0,1,.88.88Z" transform="translate(-75.03 -20.6)"/><text class="cls-3" transform="translate(35.6 126.29)">Did<tspan class="cls-4" x="41.47" y="0"> </tspan><tspan class="cls-5" x="47.17" y="0">y</tspan><tspan x="60.92" y="0">ou kn</tspan><tspan class="cls-6" x="128.61" y="0">o</tspan><tspan x="143.77" y="0">w?</tspan></text></svg>